<svg width="89" height="90" viewBox="0 0 89 90" fill="none" xmlns="http://www.w3.org/2000/svg">
<path d="M88.1559 43.2873C83.4123 41.1104 80.5021 40.5604 77.4543 39.9646C76.9731 39.8729 76.469 39.7813 75.9648 39.6667C76.7439 37.6501 77.4314 35.4044 78.073 33.2274C78.9897 30.2026 79.9521 27.0632 81.1666 24.4508L81.2812 24.2217L81.0291 24.1987C79.7917 24.0613 78.4855 23.9696 77.1335 23.9696C75.7586 23.9696 74.3607 24.0383 72.9629 24.1987C71.313 24.3821 69.4797 24.7487 68.2423 25.0695C68.0131 23.9696 67.9444 22.2968 67.8527 20.8073L67.8298 20.4177C67.6694 17.2324 68.059 13.6576 68.8839 11.0911L68.9985 10.7244L68.6319 10.8619C63.705 12.8556 60.1302 16.2929 57.0137 19.7302C53.8514 14.7805 50.8265 9.6245 48.7641 1.44368L48.3975 0V29.813C48.3975 30.6609 48.4204 31.5317 48.4662 32.4712C48.6037 36.0461 48.7183 39.7354 47.0913 41.4312C46.4955 42.0499 45.6935 42.3478 44.6852 42.3478C44.5706 42.3478 44.479 42.3478 44.3644 42.3478C44.2498 42.3478 44.1352 42.3478 44.0436 42.3478C43.0124 42.3478 42.2332 42.0499 41.6374 41.4312C40.0104 39.7354 40.1479 36.0461 40.2625 32.4712C40.2854 31.5317 40.3312 30.6609 40.3312 29.813V0.0229156L39.9646 1.46659C37.9022 9.64742 34.8774 14.8034 31.6692 19.7302C28.5527 16.2929 24.9779 12.8556 20.051 10.8619L19.6844 10.7244L19.799 11.0911C20.6239 13.6576 21.0135 17.2554 20.8531 20.4177L20.8302 20.8073C20.7614 22.3655 20.6698 23.9696 20.4406 25.0695C19.2032 24.7716 17.3929 24.3821 15.72 24.1987C14.3451 24.0383 12.9243 23.9696 11.5494 23.9696C10.1974 23.9696 8.89121 24.0383 7.65377 24.1987L7.4017 24.2217L7.51628 24.4508C8.7308 27.0632 9.69325 30.2026 10.6099 33.2274C11.2744 35.4044 11.9619 37.6501 12.7181 39.6667C12.214 39.7584 11.7098 39.8729 11.2286 39.9646C8.15791 40.5375 5.27056 41.0875 0.527056 43.2873L0 43.5394L0.572887 43.654C3.94146 44.2727 7.12671 46.1518 10.5182 48.1225C15.0096 50.7578 19.6844 53.4847 25.207 53.4847C25.4591 53.4847 25.7112 53.4847 25.9632 53.4618C29.4922 53.3014 32.6775 52.0411 35.1982 49.7724C37.5356 47.6871 39.1626 44.9143 39.9188 41.7291C40.5833 42.6457 41.202 42.9894 42.2561 43.4248C40.4458 44.0206 39.2542 45.4643 39.0938 47.2517C38.9105 49.4058 40.4229 50.9869 41.8895 52.4994C42.9207 53.5764 43.9061 54.6076 44.181 55.7534L44.3644 56.5325L44.5477 55.7534C44.7998 54.6076 45.7851 53.5993 46.8392 52.4994C48.3058 50.964 49.8183 49.4058 49.6349 47.2517C49.4745 45.4643 48.2829 44.0206 46.4726 43.4248C47.5267 42.9894 48.1454 42.6457 48.81 41.7291C49.5662 44.9143 51.2161 47.6871 53.5306 49.7724C56.0513 52.0181 59.2594 53.3014 62.7655 53.4618C63.0176 53.4618 63.2696 53.4847 63.5217 53.4847C69.0673 53.4847 73.7191 50.7578 78.2105 48.1225C81.5791 46.1518 84.7873 44.2727 88.1559 43.654L88.7287 43.5394L88.1559 43.2873ZM56.7846 22.0447C57.8158 24.0154 58.3199 27.2923 58.2512 29.4922C53.2556 32.5858 50.6661 36.5044 50.2307 41.6833C49.2225 33.4795 53.6681 25.6883 56.7846 22.0447ZM49.7266 13.9555C49.7037 12.1223 49.6808 10.3578 49.6808 8.75371C51.239 12.6493 53.5764 16.545 55.318 19.4552C55.6159 19.9365 55.8909 20.3948 56.1429 20.8302C53.943 23.6717 51.3307 27.4298 49.887 31.8296C49.8641 26.7194 49.7953 19.9823 49.7266 13.9555ZM60.8864 51.514C63.9113 51.514 66.8903 50.5286 69.4797 48.6954C72.1379 46.7934 74.2462 44.1123 75.5753 40.8812C77.8668 41.2708 81.9228 42.0728 85.0852 43.3103C82.5874 44.0894 80.25 45.5101 77.7751 46.9767C73.6504 49.4058 69.3881 51.9494 63.98 51.9494C62.6051 51.9494 61.2531 51.789 59.8552 51.4682C60.176 51.4911 60.5198 51.514 60.8864 51.514ZM69.1818 38.9105C69.7776 35.0149 69.2735 29.8818 68.5631 26.2841C71.6338 25.482 73.9483 25.1612 76.5377 25.1612C77.4314 25.1612 78.3709 25.207 79.4021 25.2758C78.6689 26.6736 77.9814 29.1256 77.2481 31.6921C76.5148 34.2586 75.6898 37.1689 74.7274 39.4146C72.4358 39.0938 71.565 38.9563 69.1818 38.9105ZM58.2512 49.7037C63.3384 49.7037 67.9444 45.6018 69.0214 40.125C71.0609 40.1708 72.7567 40.3083 74.3149 40.5604C72.0463 46.7934 65.5841 50.0474 60.3135 50.0474C59.2136 50.0474 58.1366 49.9099 57.1283 49.6349C57.4949 49.6808 57.8845 49.7037 58.2512 49.7037ZM66.8903 25.4362C64.4613 26.1236 61.6426 27.6132 59.6032 28.8048C59.4886 25.6653 59.0303 23.9925 57.7928 20.8073C60.7948 17.4387 63.5675 14.8034 67.1194 12.9702C66.3403 16.2012 66.2716 20.3948 66.8903 25.4362ZM67.8069 38.9105C62.903 39.1396 59.7636 40.6521 56.9908 42.0041C56.67 42.1645 56.3721 42.302 56.0742 42.4395C57.8616 40.2167 59.5802 35.7481 59.649 30.2026C61.5739 28.9193 64.6904 27.4757 67.2111 26.7194C68.0131 30.8901 68.5402 34.4878 67.8069 38.9105ZM67.6465 40.1708C66.5236 45.4185 61.6426 48.26 57.5637 48.26C55.4555 48.26 53.6222 47.5496 52.3848 46.2434C55.8221 44.0436 61.9635 40.1708 67.6465 40.1708ZM58.2053 30.9817C58.1366 38.4293 54.6993 42.7145 51.7202 45.0289C50.4141 36.8481 56.0054 32.4025 58.2053 30.9817ZM38.7959 31.8296C37.3522 27.4527 34.7399 23.6946 32.54 20.8302C32.7921 20.3948 33.067 19.9365 33.3649 19.4552C35.1065 16.545 37.4439 12.6493 39.0021 8.75371C38.9792 10.3578 38.9563 12.1223 38.9563 13.9555C38.8647 19.9823 38.7959 26.7194 38.7959 31.8296ZM36.9627 45.0289C33.9607 42.7145 30.5463 38.4293 30.4776 30.9817C32.6546 32.4025 38.2459 36.8481 36.9627 45.0289ZM29.0568 28.8048C27.0174 27.6132 24.1987 26.1236 21.7697 25.4362C22.4113 20.3948 22.3197 16.2012 21.5406 12.9702C25.0925 14.8034 27.8423 17.4387 30.8672 20.8073C29.6297 23.9925 29.1714 25.6653 29.0568 28.8048ZM29.011 30.2026C29.0568 35.7711 30.7984 40.2396 32.5858 42.4395C32.2879 42.302 31.99 42.1416 31.6692 42.0041C28.8964 40.6521 25.7799 39.1396 20.8531 38.9105C20.1198 34.4649 20.6468 30.8901 21.426 26.7194C23.9467 27.4757 27.0861 28.9193 29.011 30.2026ZM21.0135 40.1708C26.6965 40.1708 32.8608 44.0436 36.2752 46.2205C35.0378 47.5267 33.2045 48.2371 31.0963 48.2371C27.0174 48.2371 22.1364 45.4185 21.0135 40.1708ZM19.4782 38.9105C17.0949 38.9563 16.2242 39.0709 13.9326 39.4146C12.9472 37.1689 12.1452 34.2586 11.4119 31.6921C10.6786 29.1256 9.99115 26.6736 9.25785 25.2758C10.2661 25.1841 11.2057 25.1612 12.1223 25.1612C14.7117 25.1612 17.0262 25.482 20.0969 26.2841C19.3865 29.9047 18.8824 35.0149 19.4782 38.9105ZM13.0847 40.8812C14.3909 44.1123 16.4991 46.8163 19.1803 48.6954C21.7926 50.5286 24.7487 51.514 27.7736 51.514C28.1173 51.514 28.461 51.4911 28.8048 51.4682C27.4069 51.789 26.032 51.9494 24.68 51.9494C19.2719 51.9494 15.0096 49.4058 10.9078 46.9538C8.4329 45.4643 6.09552 44.0665 3.59773 43.2873C6.73715 42.0499 10.7932 41.2479 13.0847 40.8812ZM19.6386 40.1479C20.7156 45.6247 25.3216 49.7266 30.4088 49.7266C30.7755 49.7266 31.1651 49.7037 31.5317 49.6578C30.5234 49.9328 29.4693 50.0703 28.3464 50.0703C23.0759 50.0703 16.6366 46.8163 14.3451 40.5833C15.9033 40.3083 17.5991 40.1708 19.6386 40.1479ZM38.4522 41.6833C38.0168 36.5044 35.4502 32.5858 30.4318 29.4922C30.363 27.3153 30.8672 24.0383 31.8983 22.0447C34.9919 25.6883 39.4375 33.4795 38.4522 41.6833Z" fill="black"/>
<path d="M69.0306 89.6018V83.7218H70.1058V88.7618H72.7098V89.6018H69.0306Z" fill="black"/>
<path d="M61.0828 89.6018L63.2332 83.7218H64.4428L66.5932 89.6018H65.4508L64.9804 88.241H62.6872L62.2084 89.6018H61.0828ZM62.9812 87.401H64.6864L63.8296 84.9566L62.9812 87.401Z" fill="black"/>
<path d="M54.9245 89.6018V83.7218H58.7633V84.587H55.9997V86.1998H58.5113V87.0398H55.9997V88.7366H58.7633V89.6018H54.9245Z" fill="black"/>
<path d="M48.0109 89.6018V83.7218H50.1697C50.6401 83.7218 51.0265 83.803 51.3289 83.9654C51.6369 84.1222 51.8665 84.3378 52.0177 84.6122C52.1689 84.881 52.2445 85.1806 52.2445 85.511C52.2445 85.8694 52.1493 86.197 51.9589 86.4938C51.7741 86.7906 51.4829 87.0062 51.0853 87.1406L52.3033 89.6018H51.0685L49.9765 87.2834H49.0861V89.6018H48.0109ZM49.0861 86.4938H50.1025C50.4609 86.4938 50.7241 86.407 50.8921 86.2334C51.0601 86.0598 51.1441 85.8302 51.1441 85.5446C51.1441 85.2646 51.0601 85.0406 50.8921 84.8726C50.7297 84.7046 50.4637 84.6206 50.0941 84.6206H49.0861V86.4938Z" fill="black"/>
<path d="M42.7372 89.6018V84.587H41.0236V83.7218H45.5344V84.587H43.8124V89.6018H42.7372Z" fill="black"/>
<path d="M33.6341 89.6018V83.7218H34.7093L37.4729 87.863V83.7218H38.5481V89.6018H37.4729L34.7093 85.469V89.6018H33.6341Z" fill="black"/>
<path d="M28.0648 89.7026C27.4768 89.7026 26.9616 89.5738 26.5192 89.3162C26.0824 89.0586 25.738 88.703 25.486 88.2494C25.2396 87.7902 25.1164 87.261 25.1164 86.6618C25.1164 86.0626 25.2396 85.5362 25.486 85.0826C25.738 84.6234 26.0824 84.265 26.5192 84.0074C26.9616 83.7498 27.4768 83.621 28.0648 83.621C28.6472 83.621 29.1596 83.7498 29.602 84.0074C30.0444 84.265 30.3888 84.6234 30.6352 85.0826C30.8816 85.5362 31.0048 86.0626 31.0048 86.6618C31.0048 87.261 30.8816 87.7902 30.6352 88.2494C30.3888 88.703 30.0444 89.0586 29.602 89.3162C29.1596 89.5738 28.6472 89.7026 28.0648 89.7026ZM28.0648 88.7366C28.6248 88.7366 29.07 88.5518 29.4004 88.1822C29.7364 87.8126 29.9044 87.3058 29.9044 86.6618C29.9044 86.0178 29.7364 85.511 29.4004 85.1414C29.07 84.7718 28.6248 84.587 28.0648 84.587C27.5048 84.587 27.0568 84.7718 26.7208 85.1414C26.3848 85.511 26.2168 86.0178 26.2168 86.6618C26.2168 87.3058 26.3848 87.8126 26.7208 88.1822C27.0568 88.5518 27.5048 88.7366 28.0648 88.7366Z" fill="black"/>
<path d="M16.214 89.6018V83.7218H17.4908L19.364 87.4514L21.212 83.7218H22.4888V89.6018H21.4136V85.5446L19.7756 88.7618H18.9272L17.2892 85.5446V89.6018H16.214Z" fill="black"/>
<path d="M76.017 73.1858C75.9236 73.1858 75.7463 73.1111 75.485 72.9618C75.233 72.8218 74.9856 72.5885 74.743 72.2618C74.6403 72.1498 74.4816 71.9725 74.267 71.7298C74.0616 71.4778 73.8143 71.1885 73.525 70.8618C73.245 70.5351 72.9416 70.1851 72.615 69.8118C72.2976 69.4385 71.9756 69.0698 71.649 68.7058C71.3316 68.3325 71.0283 67.9825 70.739 67.6558C70.459 67.3291 70.207 67.0398 69.983 66.7878C69.7683 66.5358 69.605 66.3538 69.493 66.2418C69.4463 66.1765 69.3996 66.1251 69.353 66.0878C69.3156 66.0505 69.2783 66.0318 69.241 66.0318C69.2036 66.0318 69.1756 66.0691 69.157 66.1438C69.1383 66.2091 69.129 66.2698 69.129 66.3258C69.1196 66.7738 69.115 67.2918 69.115 67.8798C69.115 68.4678 69.1103 69.0745 69.101 69.6998C69.101 70.3158 69.101 70.8945 69.101 71.4358C69.101 71.7065 69.1756 71.9445 69.325 72.1498C69.4743 72.3458 69.7263 72.4811 70.081 72.5558C70.2116 72.5838 70.3143 72.6165 70.389 72.6538C70.473 72.6911 70.515 72.7471 70.515 72.8218C70.515 72.8778 70.4776 72.9198 70.403 72.9478C70.3283 72.9758 70.235 72.9898 70.123 72.9898C69.871 72.9898 69.675 72.9805 69.535 72.9618C69.4043 72.9525 69.283 72.9431 69.171 72.9338C69.059 72.9338 68.9096 72.9338 68.723 72.9338C68.5456 72.9338 68.3916 72.9385 68.261 72.9478C68.1396 72.9571 68.0183 72.9665 67.897 72.9758C67.7756 72.9851 67.6263 72.9898 67.449 72.9898C67.3463 72.9898 67.253 72.9758 67.169 72.9478C67.0943 72.9291 67.057 72.8871 67.057 72.8218C67.057 72.7565 67.0943 72.7051 67.169 72.6678C67.2436 72.6211 67.351 72.5791 67.491 72.5418C67.743 72.4671 67.9296 72.3318 68.051 72.1358C68.1723 71.9305 68.2423 71.6878 68.261 71.4078C68.2983 71.0531 68.3356 70.5865 68.373 70.0078C68.4196 69.4291 68.457 68.7805 68.485 68.0618C68.513 67.3431 68.527 66.6011 68.527 65.8358C68.527 65.3411 68.401 64.9865 68.149 64.7718C67.897 64.5571 67.575 64.3845 67.183 64.2538C67.1363 64.2351 67.0523 64.1978 66.931 64.1418C66.819 64.0858 66.763 64.0158 66.763 63.9318C66.763 63.8478 66.805 63.7918 66.889 63.7638C66.973 63.7358 67.043 63.7218 67.099 63.7218C67.3416 63.7311 67.5516 63.7405 67.729 63.7498C67.9156 63.7498 68.093 63.7545 68.261 63.7638C68.429 63.7731 68.6063 63.7825 68.793 63.7918C68.9796 63.7918 69.199 63.7918 69.451 63.7918C69.535 63.7918 69.6003 63.8151 69.647 63.8618C69.6936 63.8991 69.7356 63.9458 69.773 64.0018C69.8756 64.1231 70.0343 64.3145 70.249 64.5758C70.473 64.8371 70.7296 65.1451 71.019 65.4998C71.3176 65.8545 71.635 66.2325 71.971 66.6338C72.307 67.0258 72.643 67.4225 72.979 67.8238C73.315 68.2251 73.6323 68.6031 73.931 68.9578C74.2296 69.3125 74.4863 69.6205 74.701 69.8818C74.925 70.1338 75.0836 70.3158 75.177 70.4278C75.2143 70.4651 75.261 70.5165 75.317 70.5818C75.3823 70.6471 75.4383 70.6798 75.485 70.6798C75.569 70.6798 75.6156 70.5911 75.625 70.4138C75.625 70.2271 75.625 69.9471 75.625 69.5738C75.625 69.2005 75.625 68.7665 75.625 68.2718C75.6343 67.7771 75.639 67.2591 75.639 66.7178C75.639 66.1671 75.6343 65.6211 75.625 65.0798C75.6156 64.8745 75.5176 64.7018 75.331 64.5618C75.1443 64.4125 74.9436 64.3145 74.729 64.2678C74.5983 64.2491 74.477 64.2165 74.365 64.1698C74.253 64.1231 74.197 64.0625 74.197 63.9878C74.197 63.9318 74.253 63.8898 74.365 63.8618C74.477 63.8338 74.5843 63.8198 74.687 63.8198C74.827 63.8198 74.9483 63.8198 75.051 63.8198C75.163 63.8198 75.2703 63.8198 75.373 63.8198C75.4756 63.8198 75.5783 63.8198 75.681 63.8198C75.8956 63.8198 76.0683 63.8198 76.199 63.8198C76.3296 63.8105 76.4696 63.8011 76.619 63.7918C76.7776 63.7825 76.9923 63.7778 77.263 63.7778C77.375 63.7778 77.4636 63.7918 77.529 63.8198C77.6036 63.8478 77.641 63.8945 77.641 63.9598C77.641 64.0905 77.4963 64.1838 77.207 64.2398C76.871 64.3051 76.6423 64.3938 76.521 64.5058C76.3996 64.6085 76.3343 64.7811 76.325 65.0238C76.325 65.1731 76.3203 65.4205 76.311 65.7658C76.3016 66.1018 76.2923 66.4985 76.283 66.9558C76.283 67.4131 76.2783 67.8938 76.269 68.3978C76.2596 68.9018 76.255 69.3965 76.255 69.8818C76.255 70.3671 76.255 70.8058 76.255 71.1978C76.255 71.4218 76.2643 71.6411 76.283 71.8558C76.3016 72.0611 76.3156 72.2431 76.325 72.4018C76.3436 72.5511 76.353 72.6631 76.353 72.7378C76.353 72.9151 76.3203 73.0318 76.255 73.0878C76.1896 73.1531 76.1103 73.1858 76.017 73.1858Z" fill="black"/>
<path d="M58.4089 73.1298C57.7836 73.1298 57.1863 73.0225 56.6169 72.8078C56.0569 72.5838 55.5576 72.2711 55.1189 71.8698C54.6803 71.4591 54.3303 70.9738 54.0689 70.4138C53.8169 69.8445 53.6909 69.2145 53.6909 68.5238C53.6909 67.8891 53.7936 67.2825 53.9989 66.7038C54.2136 66.1158 54.5216 65.5931 54.9229 65.1358C55.3336 64.6785 55.8423 64.3145 56.4489 64.0438C57.0556 63.7731 57.7509 63.6378 58.5349 63.6378C59.1696 63.6378 59.7669 63.7498 60.3269 63.9738C60.8963 64.1885 61.4003 64.5011 61.8389 64.9118C62.2776 65.3131 62.6229 65.7985 62.8749 66.3678C63.1363 66.9278 63.2669 67.5531 63.2669 68.2438C63.2669 68.8691 63.1596 69.4758 62.9449 70.0638C62.7396 70.6518 62.4316 71.1745 62.0209 71.6318C61.6196 72.0891 61.1156 72.4531 60.5089 72.7238C59.9023 72.9945 59.2023 73.1298 58.4089 73.1298ZM58.6329 72.5418C59.2863 72.5418 59.8276 72.3925 60.2569 72.0938C60.6956 71.7858 61.0223 71.3611 61.2369 70.8198C61.4609 70.2785 61.5729 69.6531 61.5729 68.9438C61.5729 68.3185 61.5029 67.7258 61.3629 67.1658C61.2323 66.6058 61.0316 66.1065 60.7609 65.6678C60.4903 65.2198 60.1496 64.8745 59.7389 64.6318C59.3283 64.3798 58.8476 64.2538 58.2969 64.2538C57.6623 64.2538 57.1256 64.4031 56.6869 64.7018C56.2576 65.0005 55.9309 65.4158 55.7069 65.9478C55.4923 66.4798 55.3849 67.1005 55.3849 67.8098C55.3849 68.4445 55.4503 69.0418 55.5809 69.6018C55.7116 70.1618 55.9123 70.6658 56.1829 71.1138C56.4536 71.5525 56.7896 71.9025 57.1909 72.1638C57.6016 72.4158 58.0823 72.5418 58.6329 72.5418Z" fill="black"/>
<path d="M46.0895 73.1438C45.4175 73.1438 44.7688 73.0318 44.1435 72.8078C43.5275 72.5838 42.9815 72.2665 42.5055 71.8558C42.0295 71.4451 41.6515 70.9505 41.3715 70.3718C41.1008 69.7931 40.9655 69.1491 40.9655 68.4398C40.9655 67.7771 41.1055 67.1565 41.3855 66.5778C41.6655 65.9898 42.0528 65.4811 42.5475 65.0518C43.0515 64.6131 43.6348 64.2725 44.2975 64.0298C44.9601 63.7778 45.6788 63.6518 46.4535 63.6518C46.7988 63.6518 47.1068 63.6705 47.3775 63.7078C47.6481 63.7358 47.9095 63.7778 48.1615 63.8338C48.4135 63.8898 48.6841 63.9645 48.9735 64.0578C49.0948 64.0951 49.1835 64.1465 49.2395 64.2118C49.3048 64.2771 49.3421 64.3751 49.3515 64.5058C49.3795 64.7485 49.4028 65.0005 49.4215 65.2618C49.4495 65.5231 49.4681 65.8125 49.4775 66.1298C49.4775 66.2138 49.4401 66.2745 49.3655 66.3118C49.3001 66.3491 49.2255 66.3585 49.1415 66.3398C49.0575 66.3118 49.0015 66.2465 48.9735 66.1438C48.8895 65.8358 48.7915 65.5605 48.6795 65.3178C48.5675 65.0751 48.4041 64.8745 48.1895 64.7158C47.9748 64.5478 47.6995 64.4171 47.3635 64.3238C47.0368 64.2305 46.6681 64.1838 46.2575 64.1838C45.7348 64.1838 45.2541 64.2911 44.8155 64.5058C44.3768 64.7205 44.0035 65.0145 43.6955 65.3878C43.3875 65.7518 43.1448 66.1671 42.9675 66.6338C42.7995 67.1005 42.7155 67.5858 42.7155 68.0898C42.7155 68.6778 42.7948 69.2425 42.9535 69.7838C43.1215 70.3251 43.3595 70.8058 43.6675 71.2258C43.9848 71.6458 44.3675 71.9818 44.8155 72.2338C45.2635 72.4765 45.7675 72.5978 46.3275 72.5978C46.9995 72.5978 47.5548 72.4485 47.9935 72.1498C48.4321 71.8418 48.8008 71.4031 49.0995 70.8338C49.1648 70.7031 49.2628 70.6378 49.3935 70.6378C49.5241 70.6378 49.5895 70.7125 49.5895 70.8618C49.5895 70.9551 49.5708 71.0858 49.5335 71.2538C49.5055 71.4125 49.4635 71.5898 49.4075 71.7858C49.3515 71.9725 49.2955 72.1451 49.2395 72.3038C49.1835 72.4251 49.1321 72.5091 49.0855 72.5558C49.0388 72.6025 48.9501 72.6491 48.8195 72.6958C48.4648 72.8451 48.0448 72.9571 47.5595 73.0318C47.0835 73.1065 46.5935 73.1438 46.0895 73.1438Z" fill="black"/>
<path d="M28.6821 73.0038C28.5701 73.0038 28.4721 72.9898 28.3881 72.9618C28.3134 72.9338 28.2761 72.8871 28.2761 72.8218C28.2761 72.7005 28.4208 72.6118 28.7101 72.5558C29.0648 72.4905 29.3028 72.3878 29.4241 72.2478C29.5548 72.0985 29.6201 71.8605 29.6201 71.5338V65.2198C29.6201 64.9025 29.5548 64.6785 29.4241 64.5478C29.2934 64.4171 29.0461 64.3145 28.6821 64.2398C28.4114 64.1838 28.2761 64.0905 28.2761 63.9598C28.2761 63.8945 28.3088 63.8478 28.3741 63.8198C28.4488 63.7918 28.5374 63.7778 28.6401 63.7778C28.8828 63.7778 29.0928 63.7825 29.2701 63.7918C29.4568 63.8011 29.6341 63.8105 29.8021 63.8198C29.9794 63.8198 30.1661 63.8198 30.3621 63.8198C30.5394 63.8198 30.7028 63.8198 30.8521 63.8198C31.0108 63.8105 31.1741 63.8058 31.3421 63.8058C31.5194 63.7965 31.7248 63.7918 31.9581 63.7918C32.0701 63.7918 32.1541 63.8058 32.2101 63.8338C32.2754 63.8525 32.3081 63.8945 32.3081 63.9598C32.3081 64.0345 32.2754 64.0951 32.2101 64.1418C32.1448 64.1791 32.0421 64.2118 31.9021 64.2398C31.5474 64.3238 31.3234 64.4405 31.2301 64.5898C31.1461 64.7391 31.1041 64.9491 31.1041 65.2198V67.9218C31.1041 67.9685 31.1088 68.0245 31.1181 68.0898C31.1368 68.1458 31.1648 68.1738 31.2021 68.1738C31.2488 68.1738 31.3048 68.1505 31.3701 68.1038C31.4448 68.0478 31.5101 67.9918 31.5661 67.9358L34.3241 65.0658C34.3988 64.9818 34.4548 64.9071 34.4921 64.8418C34.5388 64.7671 34.5621 64.6971 34.5621 64.6318C34.5621 64.4545 34.4361 64.3378 34.1841 64.2818C34.0441 64.2445 33.9414 64.2071 33.8761 64.1698C33.8201 64.1231 33.7921 64.0625 33.7921 63.9878C33.7921 63.9318 33.8248 63.8898 33.8901 63.8618C33.9648 63.8338 34.0534 63.8198 34.1561 63.8198H34.9821C35.2714 63.8198 35.5748 63.8151 35.8921 63.8058C36.2094 63.7965 36.5081 63.7871 36.7881 63.7778C37.0681 63.7685 37.2828 63.7638 37.4321 63.7638C37.5254 63.7638 37.6001 63.7825 37.6561 63.8198C37.7214 63.8478 37.7541 63.8851 37.7541 63.9318C37.7541 64.0065 37.7121 64.0671 37.6281 64.1138C37.5534 64.1605 37.4461 64.1978 37.3061 64.2258C36.9234 64.2911 36.5501 64.3985 36.1861 64.5478C35.8221 64.6878 35.4861 64.8791 35.1781 65.1218C34.8608 65.3831 34.5621 65.6445 34.2821 65.9058C34.0021 66.1671 33.7268 66.4378 33.4561 66.7178C33.1854 66.9885 32.8914 67.2918 32.5741 67.6278C32.4901 67.7025 32.5088 67.8051 32.6301 67.9358L36.0041 71.5898C36.1814 71.7858 36.3308 71.9445 36.4521 72.0658C36.5828 72.1778 36.7274 72.2758 36.8861 72.3598C37.0448 72.4345 37.2501 72.4998 37.5021 72.5558C37.6421 72.5931 37.7541 72.6305 37.8381 72.6678C37.9221 72.6958 37.9641 72.7471 37.9641 72.8218C37.9641 72.8778 37.9221 72.9198 37.8381 72.9478C37.7541 72.9851 37.6421 73.0038 37.5021 73.0038C37.2314 73.0038 36.9841 72.9945 36.7601 72.9758C36.5361 72.9665 36.3168 72.9525 36.1021 72.9338C35.8874 72.9245 35.6401 72.9198 35.3601 72.9198C35.1361 72.9198 34.9354 72.9245 34.7581 72.9338C34.5808 72.9525 34.3334 72.9618 34.0161 72.9618C33.9134 72.9618 33.8248 72.9478 33.7501 72.9198C33.6848 72.8918 33.6521 72.8451 33.6521 72.7798C33.6521 72.6678 33.7688 72.5838 34.0021 72.5278C34.3008 72.4625 34.4501 72.3551 34.4501 72.2058C34.4501 72.1498 34.4268 72.0938 34.3801 72.0378C34.3428 71.9725 34.2961 71.9025 34.2401 71.8278L31.5101 68.7618C31.4541 68.7058 31.3934 68.6545 31.3281 68.6078C31.2721 68.5611 31.2254 68.5378 31.1881 68.5378C31.1508 68.5378 31.1274 68.5705 31.1181 68.6358C31.1088 68.6918 31.1041 68.7478 31.1041 68.8038C31.1041 69.2425 31.1088 69.6625 31.1181 70.0638C31.1274 70.4651 31.1414 70.9225 31.1601 71.4358C31.1694 71.6318 31.1974 71.8045 31.2441 71.9538C31.2908 72.1031 31.3748 72.2291 31.4961 72.3318C31.6174 72.4251 31.7948 72.4998 32.0281 72.5558C32.1681 72.5838 32.2754 72.6165 32.3501 72.6538C32.4248 72.6911 32.4621 72.7471 32.4621 72.8218C32.4621 72.8778 32.4201 72.9198 32.3361 72.9478C32.2614 72.9851 32.1681 73.0038 32.0561 73.0038C31.7948 73.0038 31.5801 72.9945 31.4121 72.9758C31.2534 72.9571 31.1041 72.9385 30.9641 72.9198C30.8334 72.9011 30.6794 72.8918 30.5021 72.8918C30.2874 72.8918 30.0914 72.9011 29.9141 72.9198C29.7461 72.9385 29.5641 72.9571 29.3681 72.9758C29.1814 72.9945 28.9528 73.0038 28.6821 73.0038Z" fill="black"/>
<path d="M21.3936 73.1438C21.0016 73.1438 20.6329 73.0878 20.2876 72.9758C19.9422 72.8731 19.6249 72.7145 19.3356 72.4998C19.2982 72.4625 19.2562 72.4205 19.2096 72.3738C19.1722 72.3178 19.1442 72.2618 19.1256 72.2058C19.0602 71.9911 19.0136 71.7251 18.9856 71.4078C18.9669 71.0811 18.9529 70.7918 18.9436 70.5398C18.9436 70.4745 18.9716 70.4278 19.0276 70.3998C19.0836 70.3625 19.1489 70.3438 19.2236 70.3438C19.2889 70.3438 19.3402 70.3578 19.3776 70.3858C19.4242 70.4045 19.4569 70.4465 19.4756 70.5118C19.6716 71.2211 19.9609 71.7531 20.3436 72.1078C20.7262 72.4531 21.1416 72.6258 21.5896 72.6258C21.9069 72.6258 22.1776 72.5558 22.4016 72.4158C22.6349 72.2758 22.8169 72.0891 22.9476 71.8558C23.0782 71.6131 23.1436 71.3425 23.1436 71.0438C23.1436 70.6891 23.0829 70.3998 22.9616 70.1758C22.8402 69.9518 22.6629 69.7511 22.4296 69.5738C22.1962 69.3965 21.9069 69.2051 21.5616 68.9998C21.1882 68.7758 20.8196 68.5425 20.4556 68.2998C20.1009 68.0571 19.8069 67.7725 19.5736 67.4458C19.3402 67.1191 19.2236 66.7178 19.2236 66.2418C19.2236 65.7378 19.3402 65.2945 19.5736 64.9118C19.8162 64.5198 20.1662 64.2118 20.6236 63.9878C21.0809 63.7545 21.6316 63.6378 22.2756 63.6378C22.6116 63.6378 22.9149 63.6751 23.1856 63.7498C23.4656 63.8151 23.6896 63.8851 23.8576 63.9598C23.9416 63.9878 24.0069 64.0345 24.0536 64.0998C24.1096 64.1651 24.1516 64.2445 24.1796 64.3378C24.2262 64.5338 24.2776 64.7625 24.3336 65.0238C24.3896 65.2851 24.4176 65.5511 24.4176 65.8218C24.4176 65.9245 24.3429 65.9758 24.1936 65.9758C24.1096 65.9758 24.0302 65.9571 23.9556 65.9198C23.8809 65.8825 23.8342 65.8358 23.8156 65.7798C23.6289 65.2571 23.3956 64.8605 23.1156 64.5898C22.8449 64.3191 22.4996 64.1838 22.0796 64.1838C21.7996 64.1838 21.5429 64.2351 21.3096 64.3378C21.0856 64.4311 20.9036 64.5898 20.7636 64.8138C20.6329 65.0285 20.5676 65.3131 20.5676 65.6678C20.5676 65.9198 20.6516 66.1578 20.8196 66.3818C20.9969 66.5965 21.2302 66.8065 21.5196 67.0118C21.8182 67.2078 22.1496 67.4131 22.5136 67.6278C22.8962 67.8611 23.2416 68.1038 23.5496 68.3558C23.8576 68.6078 24.1002 68.8971 24.2776 69.2238C24.4549 69.5411 24.5436 69.9238 24.5436 70.3718C24.5436 70.9598 24.4129 71.4638 24.1516 71.8838C23.8902 72.2945 23.5216 72.6071 23.0456 72.8218C22.5789 73.0365 22.0282 73.1438 21.3936 73.1438Z" fill="black"/>
<path d="M11.4164 72.9898C11.3137 72.9898 11.2251 72.9758 11.1504 72.9478C11.0851 72.9291 11.0524 72.8871 11.0524 72.8218C11.0524 72.7005 11.1877 72.6118 11.4584 72.5558C11.8131 72.4905 12.0744 72.3878 12.2424 72.2478C12.4104 72.1078 12.4944 71.8791 12.4944 71.5618V65.2338C12.4944 64.9165 12.4291 64.6925 12.2984 64.5618C12.1677 64.4218 11.9251 64.3145 11.5704 64.2398C11.2997 64.1838 11.1644 64.0905 11.1644 63.9598C11.1644 63.8945 11.1971 63.8478 11.2624 63.8198C11.3277 63.7918 11.4117 63.7778 11.5144 63.7778C11.7571 63.7778 11.9717 63.7825 12.1584 63.7918C12.3544 63.8011 12.5411 63.8105 12.7184 63.8198C12.8957 63.8291 13.0871 63.8338 13.2924 63.8338C13.4884 63.8338 13.6704 63.8338 13.8384 63.8338C14.0157 63.8245 14.1931 63.8151 14.3704 63.8058C14.5571 63.7965 14.7671 63.7918 15.0004 63.7918C15.1124 63.7918 15.2011 63.8058 15.2664 63.8338C15.3317 63.8525 15.3644 63.8945 15.3644 63.9598C15.3644 64.0345 15.3271 64.0951 15.2524 64.1418C15.1871 64.1791 15.0891 64.2118 14.9584 64.2398C14.5944 64.3238 14.3377 64.4311 14.1884 64.5618C14.0484 64.6925 13.9784 64.9165 13.9784 65.2338V71.5618C13.9784 71.8698 14.067 72.0938 14.2444 72.2338C14.4217 72.3738 14.6831 72.4811 15.0284 72.5558C15.1684 72.5838 15.2711 72.6165 15.3364 72.6538C15.4017 72.6911 15.4344 72.7471 15.4344 72.8218C15.4344 72.8778 15.4017 72.9198 15.3364 72.9478C15.2804 72.9758 15.1964 72.9898 15.0844 72.9898C14.8511 72.9898 14.6364 72.9805 14.4404 72.9618C14.2444 72.9525 14.0531 72.9431 13.8664 72.9338C13.6891 72.9245 13.4977 72.9198 13.2924 72.9198C13.0684 72.9198 12.8584 72.9245 12.6624 72.9338C12.4757 72.9431 12.2797 72.9525 12.0744 72.9618C11.8691 72.9805 11.6497 72.9898 11.4164 72.9898Z" fill="black"/>
<path d="M84.2591 56.8587C84.277 57.9409 83.4334 58.8246 82.3565 58.8426C81.2796 58.8607 80.4001 58.013 80.3822 56.9309C80.3642 55.8487 81.2078 54.965 82.2847 54.947C82.3027 54.947 82.3206 54.947 82.3206 54.947C83.3796 54.947 84.2591 55.7946 84.2591 56.8587ZM80.8488 56.8587C80.9027 57.6703 81.5847 58.3016 82.4104 58.2655C83.2181 58.2114 83.8463 57.526 83.8104 56.6964C83.7745 55.9029 83.1283 55.2896 82.3386 55.2896C81.495 55.3257 80.8309 56.0111 80.8488 56.8587ZM81.6924 56.4259C81.6924 56.2275 81.6565 56.1373 81.5309 56.1193H81.477C81.4411 56.0652 81.4411 55.975 81.495 55.957C81.8001 55.9389 82.0693 55.9209 82.3206 55.9209C82.6616 55.9209 83.0745 55.993 83.0745 56.4259C83.0745 56.6062 82.9668 56.7686 82.8052 56.8407C82.7693 56.8587 82.7693 56.8768 82.8052 56.9489C82.895 57.1653 83.0206 57.3818 83.1822 57.5441C83.236 57.5802 83.2719 57.6162 83.3078 57.6343C83.3437 57.6343 83.3437 57.7244 83.3078 57.7425C83.236 57.7425 83.1642 57.7605 83.0924 57.7605C82.8591 57.7785 82.6437 57.6523 82.536 57.4539L82.3206 57.0752C82.3027 57.0211 82.2488 56.985 82.195 56.985C82.1232 56.985 82.1052 57.0211 82.1052 57.0571V57.2736C82.1052 57.49 82.1052 57.5621 82.3206 57.5802L82.3565 57.5982C82.3924 57.6162 82.3924 57.7244 82.3565 57.7425C82.2129 57.7425 82.0873 57.7244 81.9078 57.7244C81.7463 57.7244 81.6027 57.7425 81.477 57.7425C81.4411 57.7244 81.4411 57.6162 81.4591 57.5982L81.5129 57.5802C81.6745 57.5441 81.6745 57.508 81.6745 57.2736L81.6924 56.4259ZM82.1052 56.7145C82.1052 56.8227 82.1232 56.8227 82.2847 56.8227C82.4463 56.8407 82.5719 56.7144 82.5899 56.5702C82.5899 56.5521 82.5899 56.5341 82.5899 56.5341C82.5899 56.2996 82.4822 56.1553 82.3027 56.1553C82.1232 56.1553 82.1052 56.1914 82.1052 56.2636V56.7145Z" fill="black"/>
<path d="M77.6519 60.7718C77.8135 60.7718 77.9391 60.5914 77.9391 60.3028C77.9391 60.0143 77.8135 59.8339 77.6519 59.8339H11.3677C11.2061 59.8339 11.0805 60.0143 11.0805 60.3028C11.0805 60.5914 11.2061 60.7718 11.3677 60.7718H77.6519Z" fill="black"/>
<path d="M77.6519 76.661C77.8134 76.661 77.939 76.4807 77.939 76.1921C77.939 75.9035 77.8134 75.7232 77.6519 75.7232H11.3676C11.2061 75.7232 11.0804 75.9035 11.0804 76.1921C11.0804 76.4807 11.2061 76.661 11.3676 76.661H77.6519Z" fill="black"/>
</svg>
